:SAMPLES-PER-SECOND 30
:FRAME-RANGE 1-1390
:FULLY-SPECIFIED
:DEGREES
826
root  -23.3708 40.582 6.34734 126.494 83.1848 139.346
RightUpLeg  2.31678 -13.0386 -7.22918
RightLeg  14.1147 -19.1286 -2.64345
RightFoot  3.70924 -0.27601 2.28058
RightToes  -2.9104e-010 0 -3.6325e-017
Spine  25.5504 3.77535 1.24026
Spine1  -4.44966 0.711179 -1.15964
HEad  10.8795 11.957 -9.39442
LeftShoulder1  2.1072 -4.26271 -20.7267
LeftArm  108.906 -27.257 -95.741
LeftForeArm  -27.0581 -21.3224 -8.74432
LeftHand  -0.0503238 2.13324 1.41277
RightShoulder  11.0574 18.8409 43.0808
RightArm  16.2509 -2.51703 21.7099
RightForeArm  39.672 42.4907 7.63052
RightHand  1.00225 5.9669 9.8661
LeftUpLeg  -101.913 16.5445 -73.2056
LeftLeg  124.538 1.05623 -1.9058
LeftFoot  9.57127 3.93136 -21.4028
LeftToes  5.45371e-012 -1.3743e-010 1.09575e-010
827
root  -23.496 41.2013 5.75392 139.64 83.1818 150.241
RightUpLeg  0.045889 -10.1375 -4.85596
RightLeg  13.1394 -11.77 -2.18802
RightFoot  8.06343 -0.48816 3.1782
RightToes  -2.9104e-010 0 -3.6325e-017
Spine  23.9026 3.70594 2.65033
Spine1  -5.44366 0.215372 0.380128
HEad  8.80318 13.5338 -10.1438
LeftShoulder1  2.13281 -4.29025 -20.9753
LeftArm  108.638 -27.6272 -94.8396
LeftForeArm  -27.1005 -21.4263 -8.62029
LeftHand  -0.0375438 2.18279 0.951648
RightShoulder  11.1383 18.884 43.3265
RightArm  17.5499 -1.84254 22.3267
RightForeArm  38.8091 41.1499 7.27399
RightHand  1.00398 6.16236 9.70565
LeftUpLeg  -102.153 19.1355 -60.5476
LeftLeg  119.666 14.8748 -23.0373
LeftFoot  16.4419 13.2103 -50.6463
LeftToes  5.45371e-012 -1.3743e-010 1.09575e-010
828
root  -24.3184 42.0101 5.56711 150.681 80.8007 160.779
RightUpLeg  0.433404 -7.92974 -2.16553
RightLeg  12.8608 -4.277 -0.795993
RightFoot  9.9808 -0.574438 3.41567
RightToes  -2.9104e-010 0 -3.6325e-017
Spine  25.7646 3.31306 -0.587829
Spine1  -4.98137 -0.541056 2.56313
HEad  5.55291 15.8517 -10.7031
LeftShoulder1  2.18495 -4.4245 -21.1832
LeftArm  108.027 -28.0741 -94.2517
LeftForeArm  -26.8563 -21.3323 -8.71743
LeftHand  -0.037816 2.2958 0.974581
RightShoulder  11.4531 19.2316 43.8965
RightArm  18.0667 -0.552776 21.9203
RightForeArm  38.65 40.2953 7.03103
RightHand  0.949231 6.03733 9.26795
LeftUpLeg  -102.161 16.7475 -72.8322
LeftLeg  124.976 0.161267 -0.691627
LeftFoot  12.8821 4.84764 -22.7006
LeftToes  5.45371e-012 -1.3743e-010 1.09575e-010
829
root  -24.869 42.0733 5.29975 163.487 78.2438 173.465
RightUpLeg  -1.02863 -6.41429 2.20183
RightLeg  18.8295 -2.32624 -1.02433
RightFoot  8.09662 -0.810987 5.05681
RightToes  -2.9104e-010 0 -3.6325e-017
Spine  26.4997 2.81022 -2.94611
Spine1  -3.99234 -2.08635 6.86281
HEad  3.19134 19.5772 -10.8983
LeftShoulder1  2.24222 -4.50071 -21.6661
LeftArm  107.799 -28.5554 -93.3134
LeftForeArm  -27.5342 -21.2477 -8.87119
LeftHand  -0.050428 2.42518 1.49781
RightShoulder  11.5603 19.1592 44.4803
RightArm  18.8114 2.3664 21.5163
RightForeArm  39.1884 39.1806 6.67952
RightHand  1.05993 6.67628 9.79779
LeftUpLeg  -100.374 17.6168 -71.6892
LeftLeg  124.424 -0.321093 -0.0480049
LeftFoot  12.659 4.47447 -21.2079
LeftToes  5.45371e-012 -1.3743e-010 1.09575e-010
830
root  -25.321 41.708 5.00825 170.37 74.2467 179.361
RightUpLeg  -2.81161 -3.02696 5.69744
RightLeg  22.4221 1.89314 0.640489
RightFoot  5.04379 -1.72366 12.1719
RightToes  -2.9104e-010 0 -3.6325e-017
Spine  26.1467 2.11918 -6.1089
Spine1  -2.64602 -4.18829 11.3805
HEad  1.84033 23.4999 -11.1963
LeftShoulder1  2.33329 -4.50406 -22.8597
LeftArm  105.123 -29.1443 -92.1816
LeftForeArm  -26.1679 -20.5498 -9.63261
LeftHand  -0.0626516 2.32898 1.94487
RightShoulder  11.2088 18.3319 44.7903
RightArm  19.5488 5.33487 21.0348
RightForeArm  39.32 39.1646 6.66729
RightHand  1.06252 6.61031 9.88
LeftUpLeg  -97.8402 17.1141 -71.6152
LeftLeg  123.373 -1.21315 1.21502
LeftFoot  13.0138 3.84183 -18.0487
LeftToes  5.45371e-012 -1.3743e-010 1.09575e-010
